<svg width="548" height="481" viewBox="0 0 548 481" fill="none" xmlns="http://www.w3.org/2000/svg">
<path opacity="0.6" d="M318.251 85.353C283.183 83.8681 249.758 70.0741 217.888 54.9853C186.019 39.8966 154.431 23.1757 120.185 15.1803C98.1664 10.0321 72.9852 9.30808 55.2475 23.6911C38.1746 37.5281 32.6599 61.416 29.6935 83.5797C27.4625 100.258 26.1682 117.807 32.2671 133.423C36.5126 144.26 44.0469 153.372 49.2594 163.754C67.3899 199.878 54.5726 244.426 34.9212 279.727C25.7048 296.294 15.0129 312.058 7.90167 329.675C0.790478 347.292 -2.50323 367.473 3.72158 385.44C9.89099 403.235 24.5868 416.624 40.5114 426.03C72.8542 445.12 110.964 450.581 148.126 453.71C230.388 460.564 313.094 457.594 395.572 454.625C426.097 453.52 456.758 452.409 486.784 446.648C503.459 443.451 520.678 438.382 532.785 426.147C548.151 410.61 551.963 384.311 541.664 364.829C524.39 332.16 476.631 324.042 464.554 288.98C457.911 269.682 464.735 248.181 474.395 230.282C495.109 191.888 529.839 158.201 531.667 114.309C532.926 84.1626 516.231 53.979 490.415 39.7125C463.36 24.7466 425.84 26.6365 405.882 51.3712C385.329 76.8545 349.209 86.66 318.251 85.353Z" fill="#587EEC"/>
<path d="M122.436 445.549C122.436 445.549 94.7368 420.035 89.5042 387.581C87.3822 373.951 81.6903 361.526 73.2824 352.17C69.2602 347.769 64.9159 343.825 60.304 340.389" stroke="#9AB1F3" stroke-width="2" stroke-miterlimit="10"/>
<path d="M56.9146 319.943C59.342 323.944 60.4399 340.898 60.4399 340.898C60.4399 340.898 47.4615 334.67 45.029 330.675C43.8609 328.755 43.3668 326.348 43.6554 323.984C43.9439 321.619 44.9915 319.492 46.5676 318.069C48.1437 316.645 50.1193 316.043 52.0597 316.395C54.0002 316.746 55.7465 318.023 56.9146 319.943Z" fill="#587EEC"/>
<path d="M80.1922 333.246C80.4441 338.21 73.8113 353.17 73.8113 353.17C73.8113 353.17 65.6878 339.339 65.431 334.375C65.3333 332.009 66.0049 329.69 67.3003 327.923C68.5957 326.155 70.4105 325.081 72.3515 324.933C74.2925 324.784 76.2034 325.573 77.6701 327.13C79.1368 328.686 80.0411 330.883 80.1872 333.246H80.1922Z" fill="#587EEC"/>
<path d="M102.755 371.486C100.921 375.929 88.9905 384.765 88.9905 384.765C88.9905 384.765 87.7163 367.829 89.5495 363.387C90.4519 361.298 91.9914 359.724 93.8368 359.003C95.6821 358.283 97.6857 358.475 99.4164 359.536C101.147 360.598 102.467 362.445 103.091 364.68C103.715 366.915 103.594 369.359 102.755 371.486Z" fill="#587EEC"/>
<path d="M114.484 405.088C113.29 409.843 102.759 421.005 102.759 421.005C102.759 421.005 99.1484 404.579 100.342 399.817C100.916 397.532 102.211 395.618 103.943 394.497C105.674 393.376 107.701 393.138 109.576 393.837C111.451 394.536 113.022 396.114 113.942 398.224C114.863 400.334 115.058 402.803 114.484 405.088Z" fill="#587EEC"/>
<path d="M61.8047 365.197C65.8337 365.86 78.5704 358.852 78.5704 358.852C78.5704 358.852 67.8231 348.004 63.7739 347.341C61.8305 347.023 59.8629 347.658 58.304 349.108C56.7452 350.557 55.7227 352.701 55.4616 355.069C55.2004 357.437 55.722 359.835 56.9116 361.734C58.1012 363.633 59.8613 364.879 61.8047 365.197Z" fill="#587EEC"/>
<path d="M75.9314 404.29C79.9604 403.449 90.3703 392.128 90.3703 392.128C90.3703 392.128 77.4473 385.698 73.4233 386.538C72.4599 386.731 71.5373 387.154 70.7088 387.783C69.8802 388.412 69.1622 389.235 68.5961 390.204C68.0299 391.173 67.6269 392.269 67.4103 393.429C67.1937 394.589 67.1678 395.789 67.3341 396.962C67.5003 398.134 67.8555 399.254 68.379 400.258C68.9026 401.262 69.5842 402.13 70.3844 402.811C71.1847 403.493 72.0877 403.974 73.0415 404.228C73.9953 404.482 74.9809 404.503 75.9415 404.29H75.9314Z" fill="#587EEC"/>
<path d="M93.936 439.996C98.0204 439.996 109.856 430.982 109.856 430.982C109.856 430.982 98.0153 421.98 93.9309 421.98C91.9701 421.98 90.0896 422.93 88.7031 424.619C87.3166 426.308 86.5377 428.599 86.5377 430.988C86.5377 433.377 87.3166 435.669 88.7031 437.358C90.0896 439.047 91.9701 439.996 93.9309 439.996H93.936Z" fill="#587EEC"/>
<path d="M391.523 224.876C391.523 224.876 408.596 188.029 434.331 177.413C445.138 173.041 454.489 164.517 460.983 153.12C464.029 147.672 466.657 141.894 468.835 135.86" stroke="#9AB1F3" stroke-width="2" stroke-miterlimit="10"/>
<path d="M484.991 129.11C482.06 132.57 468.417 136.154 468.417 136.154C468.417 136.154 471.766 119.648 474.697 116.181C476.112 114.567 477.99 113.695 479.928 113.751C481.865 113.808 483.707 114.79 485.056 116.484C486.406 118.179 487.155 120.452 487.143 122.813C487.131 125.175 486.358 127.436 484.991 129.11Z" fill="#587EEC"/>
<path d="M477.275 158.95C473.246 159.919 460.218 153.894 460.218 153.894C460.218 153.894 470.391 142.235 474.395 141.284C475.356 141.024 476.35 141.001 477.319 141.215C478.288 141.43 479.212 141.878 480.037 142.534C480.861 143.189 481.57 144.039 482.122 145.033C482.673 146.027 483.056 147.145 483.248 148.322C483.44 149.499 483.437 150.711 483.239 151.886C483.041 153.061 482.653 154.177 482.097 155.167C481.54 156.157 480.827 157.001 479.999 157.651C479.171 158.301 478.245 158.742 477.275 158.95Z" fill="#587EEC"/>
<path d="M449.193 191.275C445.336 189.649 436.567 176.419 436.567 176.419C436.567 176.419 450.165 172.627 454.033 174.253C454.962 174.629 455.821 175.226 456.56 176.009C457.298 176.792 457.902 177.746 458.335 178.816C458.768 179.886 459.023 181.05 459.084 182.24C459.145 183.431 459.012 184.624 458.691 185.752C458.371 186.879 457.87 187.917 457.217 188.806C456.565 189.696 455.773 190.418 454.89 190.932C454.006 191.446 453.048 191.741 452.07 191.8C451.092 191.859 450.114 191.68 449.193 191.275Z" fill="#587EEC"/>
<path d="M423.388 209.904C419.359 209.094 408.903 197.834 408.903 197.834C408.903 197.834 421.791 191.293 425.815 192.103C427.752 192.491 429.483 193.801 430.627 195.744C431.771 197.687 432.235 200.104 431.916 202.464C431.598 204.824 430.523 206.933 428.928 208.327C427.334 209.721 425.35 210.286 423.413 209.898L423.388 209.904Z" fill="#587EEC"/>
<path d="M448.841 140.989C448.836 145.966 456.244 160.404 456.244 160.404C456.244 160.404 463.642 145.984 463.642 141.014C463.668 139.812 463.496 138.615 463.136 137.495C462.776 136.375 462.236 135.354 461.547 134.493C460.858 133.631 460.035 132.947 459.126 132.479C458.216 132.012 457.239 131.771 456.252 131.771C455.265 131.771 454.287 132.012 453.378 132.479C452.468 132.947 451.645 133.631 450.956 134.493C450.267 135.354 449.727 136.375 449.367 137.495C449.007 138.615 448.835 139.812 448.861 141.014L448.841 140.989Z" fill="#587EEC"/>
<path d="M418.91 163.239C420.129 167.988 430.725 179.064 430.725 179.064C430.725 179.064 434.251 162.607 433.022 157.857C432.385 155.657 431.071 153.844 429.359 152.799C427.646 151.755 425.668 151.561 423.84 152.259C422.013 152.956 420.478 154.49 419.561 156.539C418.643 158.587 418.414 160.989 418.92 163.239H418.91Z" fill="#587EEC"/>
<path d="M392.284 189.728C392.828 194.637 401.732 207.75 401.732 207.75C401.732 207.75 407.478 192.257 406.934 187.329C406.826 186.135 406.523 184.98 406.044 183.931C405.564 182.882 404.917 181.96 404.14 181.22C403.364 180.48 402.474 179.937 401.522 179.622C400.571 179.307 399.577 179.228 398.6 179.388C397.623 179.548 396.683 179.944 395.833 180.554C394.984 181.163 394.243 181.974 393.654 182.937C393.066 183.901 392.641 184.998 392.406 186.164C392.171 187.33 392.129 188.542 392.284 189.728Z" fill="#587EEC"/>
<path opacity="0.25" d="M484.991 129.11C482.06 132.57 468.417 136.154 468.417 136.154C468.417 136.154 471.766 119.648 474.697 116.181C476.112 114.567 477.99 113.695 479.928 113.751C481.865 113.808 483.707 114.79 485.056 116.484C486.406 118.179 487.155 120.452 487.143 122.813C487.131 125.175 486.358 127.436 484.991 129.11Z" fill="black"/>
<path opacity="0.25" d="M477.275 158.95C473.246 159.919 460.218 153.894 460.218 153.894C460.218 153.894 470.391 142.235 474.395 141.284C475.356 141.024 476.35 141.001 477.319 141.215C478.288 141.43 479.212 141.878 480.037 142.534C480.861 143.189 481.57 144.039 482.122 145.033C482.673 146.027 483.056 147.145 483.248 148.322C483.44 149.499 483.437 150.711 483.239 151.886C483.041 153.061 482.653 154.177 482.097 155.167C481.54 156.157 480.827 157.001 479.999 157.651C479.171 158.301 478.245 158.742 477.275 158.95Z" fill="black"/>
<path opacity="0.25" d="M449.193 191.275C445.336 189.649 436.567 176.419 436.567 176.419C436.567 176.419 450.165 172.627 454.033 174.253C454.962 174.629 455.821 175.226 456.56 176.009C457.298 176.792 457.902 177.746 458.335 178.816C458.768 179.886 459.023 181.05 459.084 182.24C459.145 183.431 459.012 184.624 458.691 185.752C458.371 186.879 457.87 187.917 457.217 188.806C456.565 189.696 455.773 190.418 454.89 190.932C454.006 191.446 453.048 191.741 452.07 191.8C451.092 191.859 450.114 191.68 449.193 191.275Z" fill="black"/>
<path opacity="0.25" d="M423.388 209.904C419.359 209.094 408.903 197.834 408.903 197.834C408.903 197.834 421.791 191.293 425.815 192.103C427.752 192.491 429.483 193.801 430.627 195.744C431.771 197.687 432.235 200.104 431.916 202.464C431.598 204.824 430.523 206.933 428.928 208.327C427.334 209.721 425.35 210.286 423.413 209.898L423.388 209.904Z" fill="black"/>
<path opacity="0.25" d="M448.841 140.989C448.836 145.966 456.244 160.404 456.244 160.404C456.244 160.404 463.642 145.984 463.642 141.014C463.668 139.812 463.496 138.615 463.136 137.495C462.776 136.375 462.236 135.354 461.547 134.493C460.858 133.631 460.035 132.947 459.126 132.479C458.216 132.012 457.239 131.771 456.252 131.771C455.265 131.771 454.287 132.012 453.378 132.479C452.468 132.947 451.645 133.631 450.956 134.493C450.267 135.354 449.727 136.375 449.367 137.495C449.007 138.615 448.835 139.812 448.861 141.014L448.841 140.989Z" fill="black"/>
<path opacity="0.25" d="M418.91 163.239C420.129 167.988 430.725 179.064 430.725 179.064C430.725 179.064 434.251 162.607 433.022 157.857C432.385 155.657 431.071 153.844 429.359 152.799C427.646 151.755 425.668 151.561 423.84 152.259C422.013 152.956 420.478 154.49 419.561 156.539C418.643 158.587 418.414 160.989 418.92 163.239H418.91Z" fill="black"/>
<path opacity="0.25" d="M392.284 189.728C392.828 194.637 401.732 207.75 401.732 207.75C401.732 207.75 407.478 192.257 406.934 187.329C406.826 186.135 406.523 184.98 406.044 183.931C405.564 182.882 404.917 181.96 404.14 181.22C403.364 180.48 402.474 179.937 401.522 179.622C400.571 179.307 399.577 179.228 398.6 179.388C397.623 179.548 396.683 179.944 395.833 180.554C394.984 181.163 394.243 181.974 393.654 182.937C393.066 183.901 392.641 184.998 392.406 186.164C392.171 187.33 392.129 188.542 392.284 189.728Z" fill="black"/>
<path d="M392.505 224.146C392.505 224.146 395.859 182.028 415.833 159.631C424.258 150.297 429.972 137.887 432.12 124.262C433.098 117.785 433.585 111.212 433.576 104.627" stroke="#9AB1F3" stroke-width="2" stroke-miterlimit="10"/>
<path d="M446.096 90.4154C444.585 95.0297 433.284 105.044 433.284 105.044C433.284 105.044 430.856 88.2984 432.382 83.6841C433.117 81.4683 434.544 79.699 436.349 78.7651C438.155 77.8313 440.191 77.8095 442.009 78.7046C443.828 79.5997 445.28 81.3383 446.046 83.5379C446.813 85.7376 446.831 88.2181 446.096 90.4338V90.4154Z" fill="#587EEC"/>
<path d="M448.972 121.538C445.633 124.397 431.697 125.336 431.697 125.336C431.697 125.336 437.126 109.664 440.465 106.805C441.257 106.083 442.16 105.562 443.12 105.272C444.08 104.983 445.078 104.931 446.055 105.12C447.032 105.309 447.968 105.735 448.807 106.373C449.647 107.011 450.372 107.847 450.942 108.833C451.511 109.818 451.912 110.933 452.121 112.11C452.331 113.288 452.344 114.505 452.16 115.689C451.976 116.874 451.6 118.001 451.052 119.004C450.504 120.008 449.797 120.867 448.972 121.532V121.538Z" fill="#587EEC"/>
<path d="M434.034 164.969C429.965 165.386 417.546 157.606 417.546 157.606C417.546 157.606 428.726 147.42 432.795 147.003C434.75 146.802 436.689 147.556 438.187 149.098C439.685 150.64 440.619 152.844 440.783 155.225C440.947 157.606 440.329 159.969 439.063 161.794C437.797 163.619 435.988 164.757 434.034 164.957V164.969Z" fill="#587EEC"/>
<path d="M416.654 194.723C412.701 195.95 399.385 190.876 399.385 190.876C399.385 190.876 408.989 178.536 412.942 177.284C414.84 176.685 416.856 177.028 418.546 178.239C420.237 179.451 421.463 181.43 421.955 183.743C422.447 186.055 422.165 188.511 421.171 190.57C420.177 192.63 418.552 194.124 416.654 194.723Z" fill="#587EEC"/>
<path d="M417.007 119.157C418.659 123.704 430.212 133.27 430.212 133.27C430.212 133.27 432.176 116.432 430.524 111.886C429.701 109.758 428.228 108.108 426.419 107.286C424.61 106.465 422.609 106.538 420.844 107.49C419.079 108.442 417.69 110.197 416.973 112.38C416.256 114.564 416.268 117.003 417.007 119.175V119.157Z" fill="#587EEC"/>
<path d="M397.043 154.268C399.737 158.005 413.104 162.901 413.104 162.901C413.104 162.901 410.847 146.119 408.153 142.382C407.517 141.474 406.739 140.73 405.865 140.191C404.991 139.653 404.037 139.331 403.06 139.246C402.083 139.16 401.102 139.312 400.173 139.692C399.245 140.072 398.388 140.674 397.652 141.461C396.915 142.249 396.315 143.207 395.886 144.279C395.456 145.352 395.205 146.518 395.149 147.71C395.092 148.901 395.23 150.094 395.556 151.22C395.881 152.346 396.386 153.382 397.043 154.268Z" fill="#587EEC"/>
<path d="M381.486 191.649C383.621 195.883 396.116 203.461 396.116 203.461C396.116 203.461 396.222 186.458 394.102 182.218C393.046 180.26 391.407 178.88 389.53 178.371C387.654 177.862 385.688 178.263 384.05 179.49C382.413 180.716 381.232 182.672 380.758 184.942C380.284 187.212 380.554 189.618 381.511 191.649H381.486Z" fill="#587EEC"/>
<path d="M366.82 59.201C367.656 55.4641 368.664 51.7088 369.369 47.9228C368.523 51.7088 367.51 55.4764 366.82 59.201Z" fill="url(#paint0_linear_4_6)"/>
<path d="M363.073 95.1954C363.003 95.0481 362.953 94.9009 362.897 94.7659C362.897 94.7045 362.847 94.6554 362.827 94.5941C362.717 94.6572 362.604 94.7125 362.489 94.7598C362.268 94.8641 362.041 94.9622 361.809 95.042C361.578 95.1218 361.482 95.1647 361.306 95.2138C361.16 95.2752 361.01 95.3224 360.857 95.355L360.898 95.4654C361.084 95.4163 361.265 95.3734 361.452 95.312L361.502 96.0729C361.714 96.0729 361.91 96.0361 362.101 96.0361C362.192 96.03 362.283 96.03 362.373 96.0361C362.766 96.0361 363.109 96.0361 363.381 96.0361C363.275 95.7599 363.164 95.4715 363.073 95.1954ZM465.309 293.472C462.942 289.588 458.218 247.899 458.218 247.899C458.218 247.899 448.926 218.255 451.46 206.425C453.993 194.594 444.54 164.325 444.54 164.325C444.54 164.325 438.295 161.018 437.957 156.109C437.957 156.109 412.459 146.291 411.265 138.928C410.298 132.89 394.484 128.557 388.804 127.189C387.071 118.672 385.329 110.726 384.044 106.388C383.697 105.038 383.369 103.872 383.067 102.951C380.897 96.2017 374.188 95.5881 369.323 96.1281C369.113 94.9777 368.721 93.8879 368.17 92.9189C368.09 92.5858 367.93 92.289 367.712 92.066C367.607 91.9576 367.496 91.8591 367.379 91.7715C367.291 91.5726 367.175 91.394 367.037 91.2438C366.899 91.0921 366.747 90.9603 366.584 90.851C366.467 90.7739 366.345 90.7063 366.221 90.6486C365.929 90.5131 365.627 90.4124 365.32 90.3479C364.961 90.258 364.597 90.2006 364.232 90.1761C365.121 89.7023 365.913 88.9964 366.553 88.1082C366.989 87.4846 367.313 86.7574 367.505 85.9728C367.665 85.3203 367.736 84.6406 367.717 83.9602C367.586 84.2406 367.434 84.5056 367.264 84.7517C367.475 82.0334 366.297 79.2722 365.622 76.5662C364.804 73.0433 364.652 69.3404 365.178 65.7359C365.853 60.2993 367.525 54.8013 368.659 49.2666C368.661 49.236 368.661 49.2051 368.659 49.1745C369.253 46.4258 369.621 43.6118 369.756 40.7742C369.953 35.0492 368.749 29.3365 366.815 24.1208C365.098 19.5003 362.565 14.9534 358.687 13.0757C355.806 11.6583 352.578 11.8853 349.475 11.6522C342.515 11.1245 335.878 8.1423 329.26 5.43013C322.642 2.71797 315.833 0.251248 308.868 0.723729C301.903 1.19621 294.736 5.289 291.559 12.7996C290.551 15.1436 289.972 17.7515 288.768 19.9543C286.512 24.1085 282.473 26.1886 279.104 29.0542C275.735 31.9198 272.768 35.988 271.55 40.8417C270.884 43.4566 270.79 46.238 271.278 48.9107C271.387 49.5142 271.529 50.1086 271.701 50.6901C272.179 52.3115 272.924 53.7963 273.891 55.0529C274.621 55.9817 275.459 56.7737 276.379 57.4031C277.535 58.1834 278.771 58.7696 280.056 59.1457C280.01 59.3298 279.965 59.5262 279.915 59.7164C279.834 60.0293 279.764 60.33 279.688 60.6675C279.522 61.4222 279.366 62.1892 279.235 62.9624C279.23 63.0174 279.23 63.073 279.235 63.1281C278.616 66.6183 278.306 70.179 278.308 73.7497C278.307 75.4384 278.378 77.126 278.52 78.8058C280.534 103.706 297.406 123.348 318.251 124.624C318.966 124.667 319.686 124.692 320.416 124.692C320.749 124.692 321.076 124.692 321.424 124.692C321.751 125.219 322.073 125.759 322.38 126.287C322.688 126.815 322.97 127.355 323.237 127.883L322.506 126.962L321.776 126.146C321.578 126.477 321.357 126.787 321.116 127.073C320.64 126.868 320.154 126.7 319.661 126.569C317.571 126.005 314.388 125.796 310.198 127.336C306.345 128.742 301.636 131.632 296.126 137.124L269.278 156.759L254.754 167.522L249.521 183.108C249.521 183.108 245.588 201.626 241.211 222.845C241.04 222.906 240.874 222.968 240.708 223.041C240.353 222.992 239.997 222.968 239.64 222.968C237.101 222.961 234.658 224.153 232.825 226.293C230.992 228.434 229.911 231.357 229.809 234.449C221.106 247.334 220.613 260.22 222.658 266.135C222.843 266.69 223.076 267.218 223.353 267.712C224.692 270.069 227.195 276.143 229.734 282.617C229.668 283.151 229.628 283.599 229.608 283.936C229.603 284.047 229.603 284.157 229.608 284.268C229.608 284.268 231.118 312.07 226.082 320.041C224.979 321.778 225.145 324.06 226.082 326.588C229.457 335.682 242.798 347.826 242.798 347.826C242.798 347.826 258.798 347.721 267.712 346.537C267.687 347.629 267.667 348.715 267.646 349.777C267.445 360.503 267.445 369.492 267.445 369.492L267.113 380.74C267.113 380.74 264.091 404.444 262.58 410.978C261.628 415.077 262.726 453.029 263.683 480.93H421.328C423.181 464.424 420.567 414.274 420.567 414.274C420.567 414.274 418.084 401.308 417.994 390.005C417.989 389.993 417.986 389.979 417.986 389.965C417.986 389.952 417.989 389.938 417.994 389.925C417.994 388.938 417.994 387.974 418.024 387.029L419.167 386.98L421.222 386.894H421.408C421.408 386.894 421.459 386.661 421.574 386.281C421.846 385.333 422.217 384.432 422.677 383.599C423.554 382.022 424.924 380.476 426.983 380.372C428.122 380.316 429.884 379.193 431.874 377.537C431.887 377.54 431.901 377.54 431.914 377.537C437.267 373.125 444.343 364.982 446.061 363.644C448.423 361.804 459.734 349.531 459.734 349.531C459.734 349.531 461.421 346.93 463.219 343.794L463.285 343.684C465.521 339.757 467.898 335.062 467.314 333.584C466.306 330.933 467.989 324.594 467.989 324.594C473.241 312.88 467.676 297.356 465.309 293.472ZM367.923 104.737C367.972 104.92 368.002 105.11 368.014 105.302C367.888 105.099 367.762 104.884 367.636 104.688L367.515 104.492L367.43 104.344L367.621 104.025C367.621 104.025 367.621 104.025 367.621 104.068C367.754 104.267 367.856 104.494 367.923 104.737ZM366.231 99.3005C365.682 99.4355 365.249 99.5582 364.967 99.6502C364.609 98.8771 364.267 98.1039 363.96 97.3185C364.767 97.8892 365.528 98.5529 366.231 99.3005ZM365.284 100.27C365.283 100.258 365.283 100.245 365.284 100.233L365.325 100.27C365.531 100.436 365.733 100.595 365.919 100.761C366.085 100.908 366.236 101.049 366.387 101.197C366.286 101.411 366.176 101.632 366.065 101.81C365.889 101.473 365.722 101.147 365.561 100.81C365.461 100.675 365.37 100.491 365.284 100.27ZM362.263 92.698C363.236 92.5811 364.216 92.5811 365.189 92.698C365.325 92.698 365.445 92.7287 365.566 92.7532C365.839 92.8047 366.108 92.889 366.367 93.0048C366.962 94.0193 367.329 95.2063 367.43 96.4472L367.158 96.4963L366.891 96.5576C366.387 96.6619 365.884 96.7663 365.491 96.8644L364.987 96.9933C364.317 97.1712 363.93 97.3062 363.914 97.3124C363.849 97.1467 363.783 96.9933 363.713 96.8338C363.602 96.5699 363.486 96.2999 363.386 96.0361C363.285 95.7722 363.154 95.4715 363.048 95.1954C362.978 95.0481 362.927 94.9009 362.872 94.7659C362.872 94.7045 362.822 94.6554 362.801 94.5941C362.772 94.529 362.747 94.4613 362.726 94.3916C362.419 93.6307 362.137 92.8698 361.865 92.1212C361.834 92.0476 361.809 91.9678 361.784 91.8942L362.167 91.8635V92.023L362.263 92.698ZM242.103 473.346C242.062 464.209 241.518 454.324 240.007 445.046C239.363 441.101 238.698 437.155 238.023 433.277C237.852 432.308 237.686 431.35 237.52 430.393L235.968 430.645H235.827C231.597 406.34 227.175 384.925 227.175 384.925C227.175 384.925 218.392 344.064 219.409 340.806C219.54 340.382 219.374 339.241 219.001 337.566C216.876 328.276 208.002 302.676 204.9 293.926C204.9 293.889 204.875 293.846 204.864 293.815C204.361 292.349 203.998 291.361 203.887 291.073L204.618 278.015L204.658 277.23L204.754 275.561L204.713 275.518L204.754 274.744C204.754 274.744 197.089 267.087 184.105 261.558C183.601 261.337 183.068 261.122 182.539 260.914C183.188 255.63 184.05 249.666 185.173 243.855C185.279 243.272 185.394 242.708 185.515 242.137C185.621 241.566 185.742 241.014 185.863 240.456C186.054 239.548 186.261 238.652 186.472 237.768C187.172 237.498 187.862 237.197 188.542 236.878L188.804 236.756C197.18 232.785 204.091 225.251 208.257 215.548C212.424 205.846 213.564 194.633 211.467 183.985C210.271 177.946 208.063 172.274 204.98 167.326C204.749 166.945 204.502 166.565 204.255 166.19C204.008 165.816 203.711 165.399 203.434 165.018C204.89 160.987 206.607 157.152 206.748 153.231C206.773 152.734 206.773 152.236 206.748 151.74V151.678C206.562 149.156 205.645 146.604 203.51 143.922C200.392 139.989 195.955 137.995 191.518 137.038C187.081 136.08 182.559 136.056 178.097 135.412C170.699 134.332 163.492 131.552 156.093 130.699C146.981 129.671 137.806 131.575 129.487 136.222C123.982 139.29 118.407 144.653 118.075 152.01C117.803 158.091 121.278 163.92 120.401 169.927C119.53 175.83 114.595 180.475 115.028 186.446C115.194 188.777 116.176 190.864 117.405 192.723C117.828 193.337 118.276 193.95 118.74 194.564C120.532 196.877 122.507 199.098 123.509 202.013C123.549 202.136 123.589 202.258 123.625 202.381C124.476 205.259 124.093 208.898 121.988 210.548C122 210.559 122.008 210.574 122.013 210.591C122.043 210.64 122.074 210.677 122.099 210.726C122.102 210.716 122.102 210.705 122.099 210.696C122.845 211.774 123.851 212.538 124.974 212.88L125.402 213.04C125.055 213.5 124.728 213.978 124.395 214.482L124.179 214.831C123.624 215.741 123.119 216.694 122.668 217.685C122.411 218.237 122.164 218.789 121.958 219.341C121.267 221.025 120.768 222.814 120.472 224.661C119.933 228.723 120.694 232.957 119.878 236.934C118.87 241.843 115.683 245.61 113.885 250.169C110.48 258.76 112.409 268.841 113.094 278.328C114.026 291.214 112.515 304.155 111.009 316.955C110.21 323.762 109.411 330.575 108.612 337.394C106.597 354.51 104.583 371.626 102.568 388.741C101.833 395.012 100.962 401.627 97.5319 406.468H97.5671C97.5671 406.468 97.5671 406.505 97.5319 406.518C98.5614 407.066 99.6564 407.41 100.775 407.536C105.252 408.082 109.997 405.444 114.026 402.56C117.216 400.313 120.238 397.728 123.056 394.834C122.643 396.675 122.199 398.682 121.726 400.842C121.728 400.862 121.728 400.883 121.726 400.903C116.04 427.288 106.894 475.659 106.894 475.659C106.894 475.659 106.063 477.764 104.986 480.9H247.008C245.346 478.445 243.8 476.095 242.591 474.199L242.103 473.346ZM136.946 229.374C136.981 229.3 137.006 229.233 137.041 229.165C137.041 229.362 137.041 229.552 137.041 229.736C137.041 229.92 137.041 230.086 137.041 230.258C137.041 230.429 137.041 230.411 137.041 230.497C137.041 230.583 137.041 230.497 137.041 230.497C137.041 230.748 136.996 231 136.961 231.252C136.961 231.252 136.961 231.282 136.961 231.307L137.464 231.534L138.049 231.828C141.5 233.489 144.995 234.993 148.534 236.338C148.897 236.48 149.264 236.615 149.632 236.743L149.707 237.504C149.798 238.284 149.884 239.075 149.964 239.867C149.964 239.867 149.964 239.904 149.964 239.928C150.191 242.119 150.413 244.303 150.609 246.438C150.609 246.438 141.362 242.143 141.478 248.666C141.473 248.782 141.473 248.899 141.478 249.016C141.468 249.171 141.468 249.327 141.478 249.482C141.564 254.563 142.868 257.576 143.13 259.122C143.114 259.186 143.087 259.245 143.05 259.294C142.826 259.886 142.749 260.545 142.828 261.19C142.819 262.287 142.89 263.384 143.039 264.466C142.767 264.669 142.501 264.871 142.234 265.08C142.032 265.233 141.841 265.405 141.644 265.577C140.409 260.355 138.793 255.279 136.815 250.409C135.43 246.936 133.873 243.315 133.889 239.505C133.889 239.259 133.889 239.008 133.914 238.756C133.97 237.652 134.143 236.561 134.427 235.51C134.543 235.111 134.669 234.718 134.81 234.332C135.139 233.413 135.507 232.516 135.913 231.644C136.175 231.068 136.452 230.497 136.719 229.92C136.805 229.748 136.885 229.57 136.966 229.398L136.946 229.374ZM363.073 95.1954C363.003 95.0481 362.953 94.9009 362.897 94.7659C362.897 94.7045 362.847 94.6554 362.827 94.5941C362.717 94.6572 362.604 94.7125 362.489 94.7598C362.268 94.8641 362.041 94.9622 361.809 95.042C361.578 95.1218 361.482 95.1647 361.306 95.2138L360.857 95.355L360.898 95.4654C361.084 95.4163 361.265 95.3734 361.452 95.312L361.502 96.0729C361.714 96.0729 361.91 96.0361 362.101 96.0361H362.373C362.766 96.0361 363.109 96.0361 363.381 96.0361C363.275 95.7599 363.164 95.4715 363.073 95.1954Z" fill="url(#paint1_linear_4_6)"/>
<path d="M253.031 185.323L250.01 186.949C250.01 186.949 230.313 280.181 230.313 287.716C230.313 295.251 272.078 337.179 272.078 337.179L278.595 283.587C278.595 283.587 269.238 160.686 253.031 185.323Z" fill="#E8F5FF"/>
<path d="M344.646 155.667L327.195 144.573C326.218 139.496 324.483 134.681 322.078 130.368C319.525 125.876 316.13 121.464 311.9 119.163C301.208 113.321 357.125 82.6593 357.125 82.6593C358.006 86.3427 359.043 89.9679 360.233 93.5202C363.114 102.184 367.893 113.389 374.052 116.58C384.523 122.01 344.646 155.667 344.646 155.667Z" fill="#FFB0B1"/>
<path opacity="0.1" d="M360.233 93.5202C357.844 103.758 352.875 112.823 346.029 119.435C339.183 126.047 330.805 129.871 322.078 130.368C319.525 125.876 316.13 121.464 311.9 119.163C301.208 113.321 357.125 82.6593 357.125 82.6593C358.006 86.3427 359.043 89.9679 360.233 93.5202Z" fill="black"/>
<path d="M361.804 78.0388C361.806 88.0798 359.364 97.896 354.787 106.246C350.21 114.596 343.703 121.104 336.09 124.948C328.476 128.792 320.098 129.799 312.015 127.841C303.932 125.883 296.507 121.049 290.68 113.949C284.852 106.849 280.883 97.8034 279.275 87.9554C277.667 78.1074 278.492 67.8996 281.646 58.6231C284.8 49.3466 290.141 41.418 296.994 35.8401C303.847 30.2623 311.903 27.2858 320.144 27.287C325.622 27.2561 331.05 28.5477 336.116 31.0872C341.181 33.6268 345.784 37.3638 349.657 42.0826C353.531 46.8015 356.598 52.4085 358.683 58.58C360.768 64.7515 361.829 71.3651 361.804 78.0388Z" fill="#FFB0B1"/>
<path d="M367.817 149.15L356.456 181.451L346.434 202.89H314.353L304.995 173.578L308.788 143.18H333.289L349.108 142.094L354.451 139.921L357.896 142.302L367.817 149.15Z" fill="#575A89"/>
<path opacity="0.1" d="M363.904 106.093C363.904 106.093 370.99 107.934 364.645 114.273C358.299 120.611 336.406 140.768 336.406 140.768C336.406 140.768 344.097 149.113 342.505 158.888L367.984 141.584L372.516 113.898C372.516 113.898 373.025 105.578 363.904 106.093Z" fill="black"/>
<path opacity="0.1" d="M341.417 140.768L325.211 144.027C325.211 144.027 328.555 159.091 326.883 163.368C326.832 163.501 326.79 163.638 326.757 163.779L320.144 185.556L325.1 202.657L342.253 174.155L336.406 163.368C336.406 163.368 342.586 153.39 346.262 149.93C349.939 146.469 341.417 140.768 341.417 140.768Z" fill="black"/>
<path d="M341.417 139.928L325.211 143.18C325.211 143.18 328.555 158.244 326.883 162.521C326.832 162.654 326.79 162.791 326.757 162.932L320.144 184.709L325.1 201.81L342.253 173.29L336.406 162.503C336.406 162.503 342.586 152.525 346.262 149.064C349.939 145.604 341.417 139.928 341.417 139.928Z" fill="#DCE6F2"/>
<path d="M364.584 104.467C364.584 104.467 371.67 106.308 365.32 112.647C358.969 118.985 336.406 140.768 336.406 140.768C336.406 140.768 344.762 147.487 343.175 157.256L368.654 139.958L373.186 112.272C373.186 112.272 373.69 103.952 364.584 104.467Z" fill="#575A89"/>
<path opacity="0.1" d="M323.191 132.288C323.191 132.288 324.738 135.81 331.562 142.161C331.562 142.161 320.2 149.525 324.546 159.876L307.166 154.354L304.492 144.174L323.191 132.288Z" fill="black"/>
<path d="M322.521 131.478C322.521 131.478 324.067 135 330.892 141.351C330.892 141.351 319.53 148.678 323.876 159.06L306.501 153.538L303.827 143.364L322.521 131.478Z" fill="#575A89"/>
<path opacity="0.1" d="M367.817 149.15L356.456 181.451L346.454 202.89H314.353L304.995 173.578L308.783 143.18H315.597C315.486 150.273 317.611 158.606 317.475 161.705C317.243 166.798 323.71 194.275 323.71 194.275C323.71 194.275 337.242 167.608 342.586 165.233C345.945 163.742 353.061 151.335 357.891 142.302L367.817 149.15Z" fill="black"/>
<path d="M412.575 319.127L411.421 320.894C411.421 320.894 419.777 371.99 417.465 383.593C417.072 385.685 416.848 387.818 416.795 389.962V390.054C416.387 401.86 419.313 417.182 419.313 417.182C419.313 417.182 421.65 462.344 420.32 480.918H263.884C262.968 453.453 261.981 417.869 262.877 413.924C264.388 407.413 267.41 383.796 267.41 383.796L267.742 372.603C267.742 372.603 267.742 361.785 268.014 349.734C268.13 344.316 268.301 338.628 268.548 333.584C268.865 327.239 269.308 321.894 269.918 319.268C270.293 317.277 270.509 315.247 270.562 313.206C270.562 313.015 270.562 312.819 270.593 312.623C270.593 312.009 270.643 311.346 270.663 310.665C270.663 310.475 270.663 310.285 270.663 310.052C270.759 306.1 270.724 301.412 270.618 296.552C270.618 296.288 270.618 296.018 270.618 295.748C270.532 292.104 270.406 288.385 270.265 284.851C269.827 273.806 269.258 264.466 269.258 264.466L250.045 186.906L255.222 171.369L269.59 160.643L296.157 141.1C309.115 128.122 317.646 129.68 320.9 131.104C321.216 131.235 321.525 131.389 321.826 131.564C321.927 131.626 322.008 131.675 322.083 131.73C322.187 131.79 322.286 131.859 322.38 131.939C321.49 132.461 320.716 133.238 320.124 134.203C319.458 135.301 318.983 136.554 318.729 137.884C318.559 138.709 318.439 139.548 318.372 140.394C318.306 141.284 318.281 142.204 318.281 143.131C318.317 145.163 318.46 147.19 318.709 149.199C318.709 149.236 318.709 149.285 318.709 149.334C318.875 150.77 319.082 152.175 319.283 153.495C319.281 153.517 319.281 153.54 319.283 153.562C319.515 155.102 319.747 156.526 319.903 157.753C319.933 157.974 319.958 158.177 319.983 158.367C320.094 159.178 320.146 159.999 320.139 160.821C320.196 162.806 320.415 164.78 320.794 166.712C320.925 167.522 321.076 168.387 321.242 169.289C321.469 170.516 321.716 171.854 321.983 173.216C322.129 173.965 322.285 174.738 322.446 175.505C322.506 175.812 322.572 176.119 322.632 176.432L322.733 176.916C323.806 182.114 324.969 187.286 325.684 190.416C326.107 192.257 326.374 193.392 326.374 193.392C326.374 193.392 333.959 178.45 340.012 169.946C340.103 169.823 340.184 169.706 340.269 169.596C340.869 168.755 341.458 167.988 342.022 167.313C343.256 165.816 344.364 164.748 345.255 164.356C345.445 164.271 345.629 164.166 345.804 164.043C348.282 162.331 352.281 156.115 356.023 149.604C356.39 148.991 356.748 148.322 357.11 147.69C357.941 146.23 358.747 144.763 359.508 143.358C360.092 142.284 360.651 141.241 361.18 140.247C363.698 135.473 365.471 131.914 365.471 131.914L368.966 131.724L369.575 131.687H369.983L385.852 130.791C385.852 130.791 386.537 130.932 387.665 131.208C387.726 131.208 387.786 131.208 387.852 131.257C393.482 132.62 409.125 136.933 410.082 142.916C411.25 150.243 436.482 160.017 436.482 160.017C436.814 164.926 442.994 168.16 442.994 168.16C442.994 168.16 452.351 198.288 449.848 210.094C447.375 221.753 456.284 250.593 456.521 251.403L454.814 254.029L412.575 319.127Z" fill="#E8F5FF"/>
<path opacity="0.1" d="M363.899 103.952C363.899 103.952 379.345 98.6133 382.856 109.603C386.366 120.593 394.218 164.975 394.218 164.975C394.218 164.975 373.831 169.657 368.487 164.975C365.353 162.197 361.474 160.961 357.624 161.515L346.096 171.081L342.692 169.854C342.692 169.854 361.134 136.449 365.143 125.097C369.152 113.745 370.507 108.67 363.899 103.952Z" fill="black"/>
<path d="M363.23 101.497C363.23 101.497 378.686 96.1588 382.211 107.149C385.737 118.138 393.573 162.521 393.573 162.521C393.573 162.521 373.191 167.203 367.843 162.521C364.71 159.742 360.833 158.506 356.985 159.06L345.447 168.626L342.042 167.399C342.042 167.399 360.485 133.994 364.494 122.642C368.502 111.29 369.837 106.228 363.23 101.497Z" fill="#E8F5FF"/>
<path opacity="0.1" d="M259.548 278.555C259.548 278.555 271.076 282.016 273.252 289.956C275.428 297.896 264.731 298.098 264.731 298.098C264.731 298.098 258.214 284.053 259.548 278.555Z" fill="black"/>
<path opacity="0.1" d="M302.487 337.179C302.487 337.179 274.254 407.616 280.771 414.335C287.288 421.054 302.487 337.179 302.487 337.179Z" fill="black"/>
<path opacity="0.1" d="M341.417 285.274C341.417 285.274 363.975 353.692 359.462 364.258C354.95 374.825 369.152 364.258 369.152 364.258L341.417 285.274Z" fill="black"/>
<path d="M372.829 352.857C372.829 352.857 296.64 357.337 318.865 386.244C341.09 415.151 386.699 387.471 386.699 387.471L372.829 352.857Z" fill="#FFB0B1"/>
<path opacity="0.1" d="M361.804 78.0387C361.811 84.6965 360.738 91.2903 358.647 97.4411C357.947 97.5393 357.247 97.6007 356.572 97.6375C355.564 94.9437 356.103 91.8327 356.123 88.869C356.144 85.9052 355.247 82.4199 352.905 81.6222C348.237 80.0207 345.013 90.6546 340.41 88.734C336.885 87.2736 337.807 80.757 335.777 76.9956C334.17 74.0196 330.952 73.1789 328.449 71.3135C323.126 67.3312 323.287 60.9619 320.814 54.9362C318.226 48.6222 312.756 50.4875 308.007 54.2122C304.401 57.0471 301.289 60.8453 297.431 63.1034C294.092 65.067 290.34 65.7788 286.638 65.8831C284.359 65.9907 282.08 65.6972 279.87 65.0117C282.469 53.1039 288.535 42.7546 296.935 35.8938C305.336 29.033 315.498 26.1291 325.526 27.7236C335.554 29.3181 344.764 35.3022 351.438 44.5599C358.112 53.8176 361.795 65.7169 361.799 78.0387H361.804Z" fill="black"/>
<path d="M308.022 52.5862C304.411 55.4211 301.304 59.2133 297.446 61.4836C294.107 63.441 290.355 64.1528 286.653 64.2571C282.121 64.3799 277.241 63.4104 274.143 59.4219C271.298 55.7402 270.618 50.0766 271.822 45.2475C273.025 40.4183 275.911 36.4114 279.3 33.5091C282.69 30.6067 286.623 28.6002 288.869 24.446C290.058 22.2493 290.632 19.6598 291.619 17.322C294.777 9.84205 301.878 5.79221 308.742 5.28905C315.607 4.78588 322.411 7.27715 328.948 9.97704C335.485 12.6769 342.072 15.6468 348.972 16.2052C352.044 16.4384 355.237 16.2052 358.088 17.6226C361.92 19.5187 364.433 24.0533 366.146 28.6677C368.064 33.8711 369.258 39.5531 369.057 45.2352C368.634 57.3663 362.056 69.2704 364.947 80.8922C365.713 83.9909 367.148 87.1694 366.382 90.2682C365.264 94.7905 360.475 95.8214 356.602 96.0361C355.595 93.3424 356.134 90.2252 356.154 87.2676C356.174 84.31 355.277 80.8185 352.941 80.0208C348.267 78.4316 345.044 89.0471 340.451 87.1326C336.951 85.6661 337.857 79.1557 335.822 75.3942C334.216 72.4121 330.993 71.5775 328.495 69.7122C323.171 65.7298 323.332 59.3605 320.86 53.3349C318.251 46.9901 312.776 48.8555 308.022 52.5862Z" fill="#575A89"/>
<path d="M234.145 286.084L230.303 287.716C230.303 287.716 231.813 315.402 226.777 323.342C221.741 331.283 243.316 351.022 243.316 351.022C243.316 351.022 272.889 350.82 273.725 347.954C274.561 345.089 272.214 296.656 272.214 296.656C272.214 296.656 256.34 289.121 257.675 277.113C257.675 277.113 252.83 305.407 245.648 304.185C238.466 302.964 230.313 295.656 234.145 286.084Z" fill="#E8F5FF"/>
<path opacity="0.1" d="M246.963 312.751C252.562 312.751 257.101 307.694 257.101 301.455C257.101 295.216 252.562 290.158 246.963 290.158C241.364 290.158 236.825 295.216 236.825 301.455C236.825 307.694 241.364 312.751 246.963 312.751Z" fill="black"/>
<path d="M258.047 286.9C258.047 286.9 256.033 211.99 238.497 228.681C220.961 245.371 220.789 265.332 224.128 271.228C227.467 277.125 238.174 306.646 238.174 306.646C239.849 307.829 241.73 308.511 243.663 308.637C245.596 308.763 247.526 308.33 249.295 307.372C251.064 306.414 252.621 304.959 253.84 303.126C255.058 301.294 255.903 299.135 256.305 296.828L258.047 286.9Z" fill="#FFB0B1"/>
<path opacity="0.1" d="M367.44 97.1528C367.358 96.8237 367.201 96.5299 366.986 96.306C366.12 95.3427 364.257 95.0052 361.447 95.2997L361.562 96.9196C365.309 96.5269 366.05 97.4351 366.145 97.5885V97.7419L366.261 97.9444C366.728 98.7094 367.059 99.5848 367.233 100.515C367.406 101.445 367.418 102.408 367.268 103.344C366.448 108.345 361.406 112.327 361.356 112.37L361.235 112.456L361.16 112.597C358.984 116.531 346.68 127.631 343.462 130.503L343.18 130.11C341.74 131.632 329.079 145.137 328.394 150.31C327.95 153.556 324.949 154.814 323.861 155.164C322.713 154.102 318.986 150.488 317.047 146.438C315.229 142.628 322.547 135.191 323.191 132.288L322.184 131.03C322.078 131.497 312.681 142.198 315.294 147.665C317.389 152.053 321.217 155.808 322.557 157.047C322.129 161.785 319.464 189.6 315.37 196.19C310.283 204.382 306.008 245.665 306.481 260.079C306.899 272.885 304.154 297.074 294.988 307.462C293.401 309.339 291.487 310.756 289.388 311.606C287.289 312.456 285.059 312.717 282.866 312.371H282.755H282.644C282.513 312.371 269.218 314.028 258.047 302.553C248.907 293.183 243.729 277.892 242.652 257.091H242.43L242.339 251.034C244.818 250.563 247.05 248.94 248.566 246.505C250.083 244.071 250.766 241.015 250.472 237.98C250.179 234.945 248.931 232.167 246.991 230.229C245.051 228.291 242.57 227.345 240.07 227.589C237.569 227.834 235.244 229.249 233.582 231.538C231.92 233.828 231.052 236.813 231.158 239.866C231.265 242.919 232.339 245.804 234.154 247.913C235.97 250.022 238.385 251.191 240.894 251.176H241.005L241.095 257.195L240.652 257.232C241.76 278.708 247.199 294.595 256.768 304.406C264.041 311.749 273.331 315.454 282.76 314.77C283.429 314.859 284.102 314.904 284.775 314.905C289.097 314.932 293.255 312.895 296.358 309.229C306.013 298.276 308.949 273.198 308.49 259.956C307.987 244.684 312.474 204.885 316.976 197.638C321.388 190.526 324.062 162.815 324.531 157.446C326.127 156.9 329.738 155.176 330.353 150.697C330.796 147.457 339.252 137.473 344.454 131.945L344.298 131.724C347.098 129.232 355.806 121.378 360.122 116.334C361.462 114.77 362.791 113.205 364.181 111.714C365.853 109.91 367.979 107.044 368.538 103.657C368.728 102.539 368.729 101.385 368.54 100.267C368.352 99.1482 367.977 98.0885 367.44 97.1528Z" fill="black"/>
<path d="M322.386 156.661C322.174 156.483 317.158 152.108 314.645 146.843C312.036 141.376 321.434 130.68 321.534 130.214L322.542 131.472C321.902 134.368 314.584 141.811 316.403 145.616C318.694 150.42 323.519 154.624 323.569 154.667L322.386 156.661Z" fill="#353146"/>
<path d="M342.808 131.693L342.022 130.374C342.183 130.233 358.002 116.291 360.495 111.781L360.575 111.646L360.691 111.554C360.742 111.511 365.783 107.535 366.604 102.528C366.755 101.593 366.744 100.63 366.57 99.701C366.397 98.7719 366.065 97.8975 365.597 97.1345L365.481 96.9259V96.7786C365.38 96.6191 364.64 95.7171 360.893 96.1098L360.777 94.4837C363.592 94.1892 365.451 94.5267 366.317 95.4901C366.532 95.7161 366.691 96.0118 366.775 96.343C367.32 97.2759 367.702 98.3349 367.897 99.4546C368.093 100.574 368.099 101.731 367.913 102.853C367.354 106.247 365.234 109.112 363.557 110.91C362.172 112.401 360.837 113.978 359.503 115.531C354.441 121.44 343.362 131.208 342.808 131.693Z" fill="#E8F5FF"/>
<path d="M241.689 248.898L240.355 248.928L240.504 258.812L241.838 258.782L241.689 248.898Z" fill="#E8F5FF"/>
<path d="M240.244 250.396C245.626 250.396 249.989 245.08 249.989 238.523C249.989 231.965 245.626 226.65 240.244 226.65C234.862 226.65 230.499 231.965 230.499 238.523C230.499 245.08 234.862 250.396 240.244 250.396Z" fill="#587EEC"/>
<path d="M240.244 248.384C244.714 248.384 248.338 243.969 248.338 238.523C248.338 233.077 244.714 228.662 240.244 228.662C235.774 228.662 232.151 233.077 232.151 238.523C232.151 243.969 235.774 248.384 240.244 248.384Z" fill="#E8F5FF"/>
<path d="M284.14 314.114C283.467 314.115 282.795 314.072 282.126 313.985C272.697 314.661 263.409 310.958 256.134 303.621C246.565 293.803 241.136 277.935 240.018 256.44L242.032 256.287C243.11 277.088 248.287 292.386 257.433 301.749C268.603 313.193 281.894 311.567 282.025 311.567H282.136H282.247C284.441 311.912 286.671 311.65 288.77 310.8C290.87 309.95 292.785 308.534 294.374 306.658C303.535 296.27 306.28 272.081 305.862 259.275C305.358 244.849 309.634 203.565 314.725 195.38C319.182 188.207 321.947 155.875 321.978 155.55L322.053 154.63L322.798 154.47C322.844 154.47 327.195 153.464 327.739 149.5C328.444 144.333 341.085 130.828 342.52 129.3L343.835 131.141C338.612 136.663 330.156 146.653 329.733 149.899C329.119 154.391 325.508 156.109 323.916 156.649C323.413 162.024 320.759 189.728 316.362 196.84C311.86 204.087 307.372 243.886 307.876 259.159C308.309 272.4 305.403 297.485 295.749 308.432C292.64 312.106 288.471 314.147 284.14 314.114Z" fill="#353146"/>
<g opacity="0.1">
<path opacity="0.1" d="M366.095 63.533C366.921 59.8145 367.918 56.0715 368.613 52.3039C367.782 56.0899 366.78 59.8145 366.095 63.533Z" fill="black"/>
<path opacity="0.1" d="M357.67 92.7533C356.662 90.0595 357.201 86.9424 357.221 83.9848C357.241 81.0271 356.345 77.5664 354.008 76.738C349.335 75.1487 346.111 85.7704 341.518 83.8498C337.993 82.3832 338.925 75.8728 336.89 72.1114C335.283 69.1292 332.065 68.2947 329.567 66.4293C324.239 62.447 324.4 56.0777 321.932 50.052C319.339 43.7318 313.874 45.5972 309.12 49.3279C305.509 52.1628 302.402 55.9611 298.544 58.2253C295.205 60.1827 291.453 60.8945 287.751 60.9988C283.244 61.1277 278.338 60.1521 275.241 56.1636C272.854 53.0955 271.993 48.5977 272.486 44.3822C272.401 44.6706 272.325 44.959 272.25 45.2474C271.041 50.0766 271.746 55.7525 274.571 59.4219C277.669 63.4103 282.574 64.3798 287.081 64.2571C290.788 64.1528 294.535 63.441 297.879 61.4836C301.747 59.2132 304.854 55.4211 308.455 52.5862C313.209 48.8555 318.679 46.9901 321.267 53.3103C323.735 59.336 323.579 65.7053 328.902 69.6876C331.421 71.5284 334.619 72.3875 336.23 75.3696C338.245 79.1434 337.353 85.6415 340.859 87.108C345.447 89.0225 348.67 78.407 353.343 79.9963C355.68 80.794 356.582 84.2916 356.557 87.243C356.531 90.1945 356.008 93.3178 357.005 96.0115C360.878 95.7968 365.667 94.7843 366.79 90.2436C366.945 89.5919 367.016 88.9152 367.002 88.2371C365.365 91.6794 361.155 92.563 357.67 92.7533Z" fill="black"/>
</g>
<path opacity="0.1" d="M448.69 243.947L454.537 251.482C454.537 251.482 459.216 293.006 461.552 296.89C463.889 300.774 469.409 316.225 464.227 327.828C464.227 327.828 462.555 334.142 463.557 336.787C464.559 339.431 456.043 352.667 456.043 352.667C456.043 352.667 444.847 364.878 442.505 366.713C440.163 368.547 427.804 383.2 423.629 383.403C419.454 383.605 418.09 389.919 418.09 389.919L394.53 390.938C394.53 390.938 381.516 390.11 378.686 392.349C378.686 392.349 380.197 368.124 365.657 352.244L384.201 344.101C384.201 344.101 391.221 340.419 393.392 336.572C394.757 334.213 396.694 332.435 398.932 331.485C398.932 331.485 404.109 327.006 404.275 324.564C404.441 322.121 410.606 319.127 410.606 319.127L407.116 282.832L408.954 222.575C408.954 222.575 414.801 172.087 427.165 174.94C439.529 177.794 448.69 243.947 448.69 243.947Z" fill="black"/>
<path d="M450.704 243.947L456.551 251.482C456.551 251.482 461.23 293.006 463.567 296.89C465.904 300.774 471.423 316.225 466.241 327.828C466.241 327.828 464.574 334.142 465.576 336.787C466.578 339.431 458.057 352.667 458.057 352.667C458.057 352.667 446.862 364.878 444.52 366.713C442.178 368.547 429.819 383.2 425.644 383.403C421.469 383.605 420.104 389.919 420.104 389.919L396.544 390.938C396.544 390.938 383.521 390.11 380.7 392.349C380.7 392.349 382.211 368.124 367.672 352.244L386.215 344.101C386.215 344.101 393.236 340.419 395.406 336.572C396.772 334.213 398.709 332.435 400.946 331.485C400.946 331.485 406.123 327.006 406.289 324.564C406.456 322.121 412.62 319.127 412.62 319.127L409.13 282.832L410.968 222.575C410.968 222.575 416.815 172.087 429.179 174.94C441.543 177.794 450.704 243.947 450.704 243.947Z" fill="#E8F5FF"/>
<path opacity="0.1" d="M428.968 304.818C428.968 304.818 446.177 299.295 450.689 306.045C455.202 312.795 428.968 304.818 428.968 304.818Z" fill="black"/>
<path opacity="0.1" d="M424.959 314.077C430.806 319.066 448.851 319.268 448.851 319.268L424.959 314.077Z" fill="black"/>
<path opacity="0.1" d="M433.813 339.014C434.316 339.217 446.217 354.692 451.213 350.01C456.209 345.328 433.813 339.014 433.813 339.014Z" fill="black"/>
<path opacity="0.1" d="M273.539 209.137C273.539 209.137 277.034 238.455 275.312 250.396C273.589 262.337 279.875 277.131 279.875 277.131L273.539 209.137Z" fill="black"/>
<path d="M196.162 221.06C192.133 224.907 189.192 234.013 187.061 244.021C183.345 261.478 182.131 281.721 182.131 281.721C182.131 281.721 150.05 272.762 152.387 268.694C153.857 266.135 151.883 246.856 150.236 232.878C149.254 224.618 148.378 218.206 148.378 218.206C148.378 218.206 207.191 210.469 196.162 221.06Z" fill="#FFB0B1"/>
<path opacity="0.1" d="M196.162 220.243C192.133 224.097 189.192 233.197 187.061 243.205C180.67 245.569 173.872 245.783 167.389 243.822C160.905 241.861 154.979 237.8 150.236 232.068C149.254 223.802 148.378 217.39 148.378 217.39C148.378 217.39 207.191 209.659 196.162 220.243Z" fill="black"/>
<path d="M213.406 198.313C213.409 208.986 210.314 219.316 204.667 227.475C199.02 235.634 191.186 241.096 182.552 242.894C173.917 244.693 165.039 242.712 157.488 237.302C149.938 231.891 144.201 223.401 141.294 213.333C138.388 203.265 138.498 192.269 141.605 182.291C144.713 172.312 150.618 163.995 158.275 158.811C165.932 153.627 174.847 151.91 183.443 153.965C192.038 156.02 199.76 161.713 205.242 170.038C210.525 178.057 213.404 188.031 213.406 198.313Z" fill="#FFB0B1"/>
<path opacity="0.1" d="M242.656 480.918H232.08L231.189 458.159L230.257 434.603C230.257 434.603 232.659 434.167 236.487 433.516L238.033 433.265H238.159C238.995 438.045 239.821 442.954 240.617 447.857C241.941 456.56 242.631 465.39 242.677 474.242C242.677 474.856 242.677 475.469 242.677 476.046C242.707 477.684 242.677 479.323 242.656 480.918Z" fill="black"/>
<path d="M240.627 480.918H107.992C108.566 479.329 108.949 478.365 108.949 478.365C108.949 478.365 119.56 421.803 124.954 397.872C124.956 397.851 124.956 397.831 124.954 397.81C125.628 394.56 126.442 391.354 127.392 388.207C127.453 387.994 127.533 387.788 127.629 387.594C130.298 382.304 133.642 376.604 128.963 368.461C124.284 360.319 125.941 324.49 125.941 324.49C125.941 324.49 131.622 293.951 137.636 277.665C138.548 275.143 139.843 272.853 141.453 270.916C141.976 270.292 142.535 269.713 143.125 269.185C143.574 268.774 144.041 268.395 144.525 268.05L144.621 267.976C147.147 266.231 149.952 265.17 152.845 264.865C154.9 264.604 156.975 264.674 159.014 265.074C168.765 266.817 176.571 269.731 182.776 273.051C199.592 282.053 204.683 294.116 204.784 294.368L204.824 294.472C205.499 296.393 215.37 324.472 218.926 337.572C219.847 340.984 220.351 343.383 220.15 344.04C219.142 347.292 227.835 388.005 227.835 388.005C227.835 388.005 231.864 407.641 235.893 430.657C236.069 431.614 236.235 432.572 236.396 433.541C237.117 437.72 237.832 441.978 238.522 446.231C239.859 454.994 240.548 463.886 240.582 472.8C240.656 475.578 240.671 478.284 240.627 480.918Z" fill="#EB5569"/>
<path opacity="0.1" d="M152.054 250.863C152.054 250.863 142.904 246.567 143.014 253.084C143.125 259.6 145.245 262.718 144.576 263.669C143.906 264.62 144.908 270.32 144.908 270.32C144.908 270.32 157.272 270.32 162.953 273.437C168.634 276.555 189.574 282.801 192.249 284.703C194.923 286.606 204.839 295.135 204.839 295.135L205.731 278.984C205.731 278.984 195.482 268.67 178.666 263.38C161.85 258.091 152.054 250.863 152.054 250.863Z" fill="black"/>
<path d="M152.054 250.047C152.054 250.047 142.904 245.751 143.014 252.268C143.125 258.784 145.245 261.902 144.576 262.853C143.906 263.804 144.908 269.504 144.908 269.504C144.908 269.504 157.272 269.504 162.953 272.627C168.634 275.751 189.574 281.991 192.249 283.887C194.923 285.783 204.839 294.319 204.839 294.319L205.741 278.217C205.741 278.217 195.492 267.903 178.676 262.613C161.86 257.324 152.054 250.047 152.054 250.047Z" fill="#EB5569"/>
<path opacity="0.1" d="M179.678 288.913C179.678 288.913 197.164 311.978 196.273 318.366C195.381 324.754 179.678 288.913 179.678 288.913Z" fill="black"/>
<path opacity="0.1" d="M151.274 372.235C151.274 372.235 138.457 386.624 134.679 387.44C130.902 388.257 137.575 390.969 141.916 388.803C146.258 386.637 155.514 380.936 155.514 380.936L151.274 372.235Z" fill="black"/>
<path d="M245.834 480.918H215.944C211.764 476.5 207.811 472.407 205.292 469.947C201.263 466.007 198.358 460.209 196.504 455.545C196.086 454.484 195.724 453.49 195.416 452.588C194.866 451.034 194.382 449.447 193.966 447.832L216.1 431.817C217.324 433.084 218.473 434.454 219.54 435.916L219.807 436.29C221.036 438.057 222.119 440.064 222.214 441.708C222.325 443.623 226.697 451.029 231.164 458.141C235.696 465.375 240.34 472.291 240.647 472.757C240.647 472.757 241.412 474.027 242.661 475.979C243.543 477.39 244.631 479.083 245.834 480.918Z" fill="#FFB0B1"/>
<path opacity="0.1" d="M205.242 170.038C204.18 172.959 203.228 175.99 203.087 179.242C202.689 188.63 203.334 209.622 194.802 214.334C190.577 216.654 186.054 211.561 181.421 211.438C178.087 211.352 175.03 213.929 172.995 217.151C170.961 220.372 169.696 224.195 168.221 227.84C166.878 231.148 165.33 234.328 163.593 237.351C163.073 238.276 162.501 239.156 161.88 239.983C156.678 237.309 152.046 233.223 148.336 228.037C144.626 222.85 141.937 216.701 140.473 210.057C139.01 203.412 138.81 196.449 139.89 189.696C140.97 182.944 143.301 176.581 146.704 171.092C150.108 165.603 154.496 161.134 159.532 158.024C164.568 154.914 170.121 153.246 175.767 153.146C181.413 153.047 187.002 154.519 192.11 157.451C197.218 160.382 201.71 164.696 205.242 170.062V170.038Z" fill="black"/>
<path d="M202.417 177.585C202.014 186.973 202.664 207.965 194.127 212.671C189.902 214.991 185.379 209.904 180.746 209.781C177.412 209.689 174.36 212.273 172.32 215.488C170.281 218.703 169.027 222.532 167.546 226.183C166.202 229.491 164.655 232.671 162.918 235.694C161.88 237.486 160.732 239.284 159.135 240.29C156.355 242.057 152.986 241.063 150.005 239.928C146.137 238.443 142.326 236.77 138.572 234.909C138.658 234.218 138.702 233.521 138.703 232.822C138.592 233.08 138.472 233.319 138.351 233.577L138.114 234.08C137.686 235.001 137.268 235.921 136.885 236.866C136.739 237.228 136.598 237.602 136.472 237.977C135.966 239.37 135.648 240.853 135.53 242.37C135.274 246.463 136.931 250.347 138.401 254.029C144.057 268.271 147.552 284.924 143.296 299.866C141.453 306.364 138.26 312.138 135.928 318.415C131.852 329.533 130.652 341.9 132.489 353.87C133.652 361.307 135.984 368.67 135.41 376.211C134.402 389.189 125.216 398.847 116.015 405.487C111.044 409.058 104.96 412.236 99.6824 409.414C103.047 404.628 103.913 398.007 104.638 391.76C106.622 374.722 108.612 357.676 110.606 340.622C111.402 333.835 112.196 327.049 112.988 320.262C114.469 307.511 115.97 294.619 115.043 281.789C114.368 272.333 112.464 262.294 115.829 253.734C117.606 249.2 120.774 245.444 121.761 240.56C122.572 236.59 121.817 232.368 122.351 228.325C122.643 226.485 123.137 224.702 123.821 223.023C124.692 220.745 125.828 218.633 127.195 216.752C125.846 216.273 124.587 215.617 123.821 214.242C125.987 212.524 126.314 208.652 125.332 205.744C124.35 202.835 122.386 200.62 120.618 198.325C118.85 196.03 117.148 193.355 116.927 190.225C116.498 184.267 121.384 179.653 122.245 173.775C123.116 167.792 119.671 161.975 119.948 155.918C120.271 148.598 125.79 143.278 131.24 140.192C139.463 135.554 148.546 133.648 157.569 134.669C164.912 135.516 172.018 138.283 179.341 139.357C183.758 139.971 188.235 140.032 192.621 140.977C197.008 141.922 201.405 143.916 204.492 147.837C212.63 158.176 202.88 166.687 202.417 177.585Z" fill="#575A89"/>
<path opacity="0.1" d="M195.608 455.551C193.039 454.195 188.366 455.005 180.343 452.029C172.32 449.053 170.774 435.603 170.774 435.603V435.56C170.678 435.253 169.933 433.253 164.887 426.245C159.311 418.508 147.26 379.427 147.26 379.427C147.26 379.427 136.573 365.442 136.91 360.288C137.248 355.134 135.012 341.419 135.233 326.079C135.455 310.739 159.291 300.565 159.291 300.565C205.187 290.655 194.379 355.121 193.155 360.006C191.931 364.89 198.282 378.083 198.282 378.083C197.386 383.826 201.958 392.717 201.958 392.717C201.958 392.717 203.066 400.584 203.293 403.572C203.306 403.71 203.331 403.846 203.369 403.977C204.104 406.794 210.097 409.346 212.535 410.899C215.098 412.531 223.342 426.779 223.342 426.779C225.12 437.241 198.166 456.926 195.608 455.551Z" fill="black"/>
<path d="M196.943 453.097C194.379 451.735 189.7 452.551 181.683 449.568C173.665 446.586 172.114 433.148 172.114 433.148V433.105C172.023 432.792 171.273 430.798 166.226 423.791C160.651 416.053 148.6 376.966 148.6 376.966C148.6 376.966 137.913 362.988 138.245 357.833C138.577 352.679 136.351 338.965 136.573 323.637C136.795 308.309 160.616 298.141 160.616 298.141C206.511 288.231 195.704 352.698 194.48 357.582C193.256 362.466 199.607 375.659 199.607 375.659C198.71 381.402 203.283 390.294 203.283 390.294C203.283 390.294 204.391 398.16 204.623 401.148C204.631 401.287 204.655 401.423 204.693 401.553C205.429 404.37 211.422 406.922 213.864 408.475C216.423 410.101 224.672 424.355 224.672 424.355C226.46 434.799 199.506 454.484 196.943 453.097Z" fill="#EB5569"/>
<path opacity="0.1" d="M161.523 331.798C161.523 331.798 181.572 357.57 186.805 357.57C192.037 357.57 161.523 331.798 161.523 331.798Z" fill="black"/>
<path d="M196.942 453.097C194.379 451.735 189.7 452.551 181.683 449.569C173.665 446.586 172.114 433.148 172.114 433.148V433.105C177.427 428.81 190.884 416.679 196.187 412.243C199.919 409.132 202.966 404.56 204.749 401.529C205.484 404.345 211.477 406.898 213.92 408.451C216.478 410.077 224.727 424.331 224.727 424.331C226.46 434.799 199.506 454.484 196.942 453.097Z" fill="#FF748E"/>
<g opacity="0.1">
<path opacity="0.1" d="M123.851 214.31C123.876 214.359 123.912 214.402 123.942 214.451C124.093 214.218 124.249 213.985 124.41 213.764C124.239 213.967 124.052 214.15 123.851 214.31Z" fill="black"/>
<path opacity="0.1" d="M135.535 242.438C135.747 239.032 137.243 236.032 138.643 233.037C137.726 232.608 136.81 232.172 135.903 231.718C135.989 231.03 136.033 230.334 136.034 229.638C134.619 232.706 133.078 235.725 132.861 239.179C132.604 243.278 134.261 247.156 135.732 250.838C141.393 265.074 144.883 281.727 140.627 296.675C138.779 303.167 135.591 308.947 133.259 315.224C129.184 326.341 127.986 338.706 129.824 350.673C130.978 358.116 133.314 365.473 132.74 373.014C131.733 385.992 122.552 395.651 113.346 402.284C109.584 404.996 105.187 407.481 100.982 407.303C100.592 408.067 100.158 408.795 99.6824 409.481C104.965 412.322 111.044 409.125 116.015 405.542C125.226 398.915 134.427 389.281 135.435 376.279C136.009 368.738 133.672 361.38 132.514 353.937C130.675 341.972 131.87 329.607 135.938 318.489C138.255 312.218 141.478 306.431 143.306 299.939C147.562 284.992 144.067 268.338 138.411 254.103C136.946 250.396 135.279 246.537 135.535 242.438Z" fill="black"/>
<path opacity="0.1" d="M204.482 147.911C203.986 147.292 203.454 146.717 202.89 146.193C208.994 155.839 200.181 164.036 199.743 174.419C199.35 183.807 199.994 204.805 191.458 209.505C187.238 211.831 182.71 206.738 178.082 206.615C174.743 206.529 171.691 209.112 169.651 212.328C167.611 215.543 166.357 219.372 164.882 223.017C163.535 226.324 161.987 229.504 160.248 232.528C159.241 234.326 158.063 236.117 156.461 237.13C153.691 238.891 150.322 237.903 147.335 236.762C144.431 235.649 141.554 234.422 138.703 233.08C138.697 233.719 138.654 234.357 138.572 234.988C142.329 236.854 146.142 238.527 150.01 240.008C152.991 241.149 156.36 242.137 159.135 240.376C160.732 239.363 161.89 237.566 162.923 235.768C164.662 232.748 166.209 229.57 167.551 226.263C169.032 222.618 170.281 218.783 172.325 215.568C174.37 212.352 177.417 209.775 180.751 209.861C185.384 209.984 189.912 215.077 194.132 212.751C202.669 208.051 202.019 187.053 202.417 177.665C202.88 166.749 212.63 158.244 204.482 147.911Z" fill="black"/>
</g>
<path opacity="0.1" d="M138.119 234.086C137.691 235.007 137.273 235.927 136.89 236.872C136.744 237.234 136.603 237.609 136.477 237.983C133.838 234.743 127.412 227.042 123.826 224.655C124.698 222.378 125.834 220.266 127.2 218.384C127.2 218.384 135.747 223.888 138.119 234.086Z" fill="black"/>
<path d="M138.356 233.583C136.377 222.667 127.2 216.758 127.2 216.758C125.833 218.639 124.697 220.752 123.826 223.029C127.608 225.551 134.579 234.007 136.89 236.872L138.356 233.583Z" fill="#EB5569"/>
<defs>
<linearGradient id="paint0_linear_4_6" x1="368.094" y1="59.201" x2="368.094" y2="47.9228" gradientUnits="userSpaceOnUse">
<stop stop-color="#808080" stop-opacity="0.25"/>
<stop offset="0.54" stop-color="#808080" stop-opacity="0.12"/>
<stop offset="1" stop-color="#808080" stop-opacity="0.1"/>
</linearGradient>
<linearGradient id="paint1_linear_4_6" x1="231050" y1="404067" x2="231050" y2="28173" gradientUnits="userSpaceOnUse">
<stop stop-color="#808080" stop-opacity="0.25"/>
<stop offset="0.54" stop-color="#808080" stop-opacity="0.12"/>
<stop offset="1" stop-color="#808080" stop-opacity="0.1"/>
</linearGradient>
</defs>
</svg>
